Coordinates
version=1
nRows=6
nColumns=46
inDegrees=yes

Units are S.I. units (second, meters, Newtons, ...)
Angles are in degrees.

endheader
time	pelvis_tilt	pelvis_list	pelvis_rotation	pelvis_tx	pelvis_ty	pelvis_tz	bb_angle	bb_tx	bb_ty	bb_tz	hip_flexion_r	hip_adduction_r	hip_rotation_r	knee_angle_r	knee_angle_r_beta	ankle_angle_r	subtalar_angle_r	mtp_angle_r	crank_angle_r	hip_flexion_l	hip_adduction_l	hip_rotation_l	knee_angle_l	knee_angle_l_beta	ankle_angle_l	subtalar_angle_l	mtp_angle_l	crank_angle_l	lumbar_extension	lumbar_bending	lumbar_rotation	arm_flex_r	arm_add_r	arm_rot_r	elbow_flex_r	pro_sup_r	wrist_flex_r	wrist_dev_r	arm_flex_l	arm_add_l	arm_rot_l	elbow_flex_l	pro_sup_l	wrist_flex_l	wrist_dev_l
      5.00500000	    -16.14570656	      3.44355631	      5.07354473	      0.12695578	      1.09848275	     -0.24112390	      0.00000000	      0.50000000	      0.00000000	      0.25000000	     45.83719410	    -10.47364004	     -8.69259723	     33.44814724	      0.58378030	    -15.83528539	     -4.70554638	      0.00000000	      0.00000000	     87.59766970	     -1.93390101	      1.93268242	    114.63206612	      2.00070698	      0.28818023	     -8.68159361	      0.00000000	      0.00000000	    -59.27360260	     -1.01347390	     -8.57313992	     89.73926805	     -4.27898779	     31.26337443	     36.80796693	     22.58973417	      0.00000000	      0.00000000	     89.62342430	    -11.48189304	     35.35073354	     46.68889206	     27.02121105	      0.00000000	      0.00000000
      5.01000000	    -16.29966570	      3.63007515	      5.31100931	      0.12686892	      1.09878130	     -0.23988170	      0.00000000	      0.50000000	      0.00000000	      0.25000000	     45.30014048	    -10.90823788	     -9.26528079	     33.10370222	      0.57776860	    -17.06296337	     -3.81694644	      0.00000000	      0.00000000	     88.90387607	     -1.83792809	      1.79141827	    114.94743443	      2.00621120	      0.63721440	     -8.38544207	      0.00000000	      0.00000000	    -59.15258041	     -1.15893488	     -8.55143809	     89.74263196	     -4.54803968	     31.26454969	     36.63915744	     22.55960495	      0.00000000	      0.00000000	     89.61574145	    -11.12338787	     35.27939804	     46.80595418	     27.03516167	      0.00000000	      0.00000000
      5.01500000	    -16.44803089	      3.74676290	      5.57301561	      0.12667122	      1.09924810	     -0.23879557	      0.00000000	      0.50000000	      0.00000000	      0.25000000	     44.81475258	    -11.30167323	     -9.83442993	     32.89543558	      0.57413366	    -18.17377712	     -3.06172289	      0.00000000	      0.00000000	     90.13742466	     -1.64960352	      1.76321593	    115.08428875	      2.00859976	      1.07256364	     -7.84894050	      0.00000000	      0.00000000	    -59.04029590	     -1.25094664	     -8.42867138	     89.74759476	     -4.95364102	     31.36340546	     36.39180156	     22.52097473	      0.00000000	      0.00000000	     89.61290873	    -10.49823190	     35.02393429	     46.70357844	     26.99691416	      0.00000000	      0.00000000
      5.02000000	    -16.51877641	      3.89767079	      5.69148196	      0.12636639	      1.09989619	     -0.23758737	      0.00000000	      0.50000000	      0.00000000	      0.25000000	     44.44947881	    -11.63202480	    -10.22295601	     32.96542209	      0.57535515	    -19.48870981	     -2.41921590	      0.00000000	      0.00000000	     91.18241399	     -1.62152659	      1.61541702	    115.07688291	      2.00847050	      1.32830140	     -7.71240366	      0.00000000	      0.00000000	    -59.04338597	     -1.41828412	     -8.42333149	     89.75248161	     -5.11313708	     31.37337052	     36.34600918	     22.51275644	      0.00000000	      0.00000000	     89.61583880	    -10.26051697	     34.91006474	     46.73108100	     26.99303068	      0.00000000	      0.00000000
      5.02500000	    -16.65354258	      4.03981875	      5.88695031	      0.12594268	      1.10067590	     -0.23674087	      0.00000000	      0.50000000	      0.00000000	      0.25000000	     44.20361432	    -12.01080103	    -10.55210302	     33.11671514	      0.57799572	    -20.77637062	     -1.93422180	      0.00000000	      0.00000000	     92.19112088	     -1.34407393	      1.53424611	    114.85834651	      2.00465632	      1.52202422	     -7.55182643	      0.00000000	      0.00000000	    -59.03312645	     -1.49965064	     -8.42678604	     89.75546018	     -5.36034308	     31.37012058	     36.30725201	     22.50493876	      0.00000000	      0.00000000	     89.61477135	     -9.96350008	     34.74287614	     46.80312990	     26.99380975	      0.00000000	      0.00000000
      5.03000000	    -16.69673381	      4.15556952	      6.03165861	      0.12539638	      1.10155106	     -0.23603798	      0.00000000	      0.50000000	      0.00000000	      0.25000000	     44.02326124	    -12.31820698	    -10.71968596	     33.56230717	      0.58577276	    -21.99500635	     -1.65912737	      0.00000000	      0.00000000	     92.98904204	     -1.08433266	      1.49077674	    114.51758150	      1.99870885	      1.78088495	     -7.47327088	      0.00000000	      0.00000000	    -59.09810328	     -1.55118242	     -8.41826717	     89.75814053	     -5.56632731	     31.35441134	     36.32303030	     22.50660827	      0.00000000	      0.00000000	     89.60688393	     -9.79369091	     34.58877671	     46.89543889	     27.00000703	      0.00000000	      0.00000000
